<svg xmlns="http://www.w3.org/2000/svg" viewBox="0 0 860 420" width="860" height="420">
  <!-- NOAA seagull emblem: two thick upswept wings meeting at a small body with beak and tail.
       Fill is #ffffff; consumers recolor by string-replacing that value before rasterizing. -->
  <path fill="#ffffff" d="
    M 28 52
    C 165 105 330 220 455 302
    C 495 315 525 313 560 300
    C 615 268 700 175 745 105
    C 762 82 778 68 792 56
    C 780 150 738 245 665 300
    C 652 308 638 313 624 316
    C 636 316 650 324 662 338
    L 588 352
    C 562 380 528 394 502 394
    L 455 417
    L 447 372
    C 320 352 168 228 80 112
    C 58 84 40 64 28 52
    Z"/>
</svg>
